<svg xmlns="http://www.w3.org/2000/svg" viewBox="0 0 64 64" fill="none">
  <rect width="64" height="64" rx="14" fill="#2563eb"/>
  <path d="M20 26h24v18a2 2 0 0 1-2 2H22a2 2 0 0 1-2-2V26z" fill="white" opacity="0.95"/>
  <path d="M16 24a2 2 0 0 1 2-2h28a2 2 0 0 1 2 2v4H16v-4z" fill="white"/>
  <path d="M27 22v-2a1 1 0 0 1 1-1h8a1 1 0 0 1 1 1v2" stroke="white" stroke-width="1.5" stroke-linecap="round"/>
  <path d="M16 34h32" stroke="#2563eb" stroke-width="2" stroke-linecap="round"/>
  <rect x="29" y="31" width="6" height="5" rx="1" fill="#2563eb"/>
</svg>
